# xmcd
# Track frame offsets:
# 150
# 27324
# 44169
# 61147
# 77003
# 93394
# 112198
# 131866
# 150137
# 167600
# 182532
# 204087
# 230208
# 256404
# 270861
# 292030
# 316703
#
# Disc length: 4474 seconds
# Revision: 0
# Processed by: cddbd v1.5.2PL0 Copyright (c) Steve Scherf et al.
# Submitted via: VisiTrax 2.10.3.257 - For more info visit www.synapsa.com
#
DISCID=e3117811
DTITLE=Southside Johnny and The Asbury Jukes - Jukebox - disc 3 of 5
DYEAR=2007
DGENRE=Blues
TTITLE0=Lorraine (demo)
TTITLE1=I only want to be with you (demo)
TTITLE2=I should have said i loved you (demo)
TTITLE3=Heart of saturday night (acoustic)
TTITLE4=Under the boardwalk (live)
TTITLE5=C'mon Caroline (live)
TTITLE6=Broke down piece of man (acoustic)
TTITLE7=Comin' back (acoustic)
TTITLE8=Goodbye blues (acoustic)
TTITLE9=Take it inside (acoustic)
TTITLE10=I talk to the night
TTITLE11=Rosa
TTITLE12=Blue radio
TTITLE13=Train kept-a-rollin'
TTITLE14=Time is running wild
TTITLE15=King of the night
TTITLE16=Into the mystic (live)
EXTD=submitted by Francesco Magni
EXTT0=
EXTT1=
EXTT2=
EXTT3=
EXTT4=
EXTT5=
EXTT6=
EXTT7=
EXTT8=
EXTT9=
EXTT10=
EXTT11=
EXTT12=
EXTT13=
EXTT14=
EXTT15=
EXTT16=
PLAYORDER=
